<?xml version="1.0" encoding="utf-8"?>
<!-- Generator: Adobe Illustrator 16.0.0, SVG Export Plug-In . SVG Version: 6.00 Build 0)  -->
<!DOCTYPE svg PUBLIC "-//W3C//DTD SVG 1.1//EN" "http://www.w3.org/Graphics/SVG/1.1/DTD/svg11.dtd">
<svg version="1.1" id="Layer_1" xmlns="http://www.w3.org/2000/svg" xmlns:xlink="http://www.w3.org/1999/xlink" x="0px" y="0px"
	 width="62.09px" height="62.004px" viewBox="0 0 62.09 62.004" enable-background="new 0 0 62.09 62.004" xml:space="preserve">
<g id="Layer_1_1_">
	<g display="none">
		<path display="inline" fill="#2D2D2D" d="M87.023,2146.561l-357.879,50.541c-5.685,0-10.293,3.397-10.293,7.582v174.422
			c0,4.187,4.608,7.58,10.293,7.58l357.879,50.543l0,0V2146.561L87.023,2146.561z"/>
		<path display="inline" fill="#232323" d="M446.207,2197.102L86.5,2146.561v290.668l359.707-50.543
			c5.689,0,10.293-3.395,10.293-7.58v-174.422C456.5,2200.499,451.896,2197.102,446.207,2197.102z"/>
	</g>
	<g display="none">
		<g display="inline">
			<path fill="#FFFFFF" d="M-161.502,2261.523h-71.022c-1.523,0-2.757,1.24-2.757,2.764v19.663c0,1.521,1.233,2.759,2.757,2.759
				h21.532v58.538c0,1.53,1.242,2.767,2.759,2.767h22.444c1.521,0,2.755-1.235,2.755-2.767v-58.538h21.532
				c1.521,0,2.763-1.236,2.763-2.759v-19.663C-158.739,2262.765-159.981,2261.523-161.502,2261.523z"/>
			<path fill="#FFFFFF" d="M-107.58,2258.705c-26.058,0-46.484,19.708-46.484,44.861v0.24c0,25.02,20.322,44.621,46.258,44.621
				c26.062,0,46.479-19.707,46.479-44.861v-0.232C-61.327,2278.304-81.643,2258.705-107.58,2258.705z M-89.074,2308.167
				l-48.489,28.928l25.741-27.265l-9.967-10.094l43.962-29.697l-21.629,27.646L-89.074,2308.167z"/>
			<path fill="#FFFFFF" d="M66.15,2261.523H42.902c-1.217,0-2.289,0.807-2.635,1.955l-11.604,38.508l-12.867-38.796
				c-0.372-1.14-1.432-1.897-2.618-1.897H-6.139c-1.191,0-2.242,0.76-2.617,1.897l-12.864,38.796l-11.605-38.508
				c-0.352-1.148-1.425-1.955-2.64-1.955H-59.58c-0.88,0-1.722,0.432-2.234,1.146c-0.516,0.726-0.662,1.635-0.387,2.486
				l27.07,81.534c0.375,1.141,1.426,1.9,2.617,1.9h19.547c1.183,0,2.229-0.747,2.611-1.841l13.598-39.15l13.688,39.15
				c0.393,1.094,1.432,1.841,2.607,1.841h19.547c1.195,0,2.246-0.761,2.621-1.9l27.068-81.534c0.277-0.853,0.139-1.763-0.385-2.486
				C67.876,2261.955,67.038,2261.523,66.15,2261.523z"/>
			<path fill="#FFFFFF" d="M146.036,2323.416h-40.728v-7.327h36.104c1.521,0,2.766-1.232,2.766-2.753v-17.705
				c0-1.52-1.242-2.757-2.766-2.757h-36.104v-6.739h40.151c1.524,0,2.761-1.232,2.761-2.757v-19.091
				c0-1.522-1.234-2.764-2.761-2.764H80.342c-1.523,0-2.761,1.24-2.761,2.764v80.96c0,1.53,1.235,2.766,2.761,2.766h65.694
				c1.534,0,2.764-1.235,2.764-2.766v-19.085C148.8,2324.643,147.57,2323.416,146.036,2323.416z"/>
			<path fill="#FFFFFF" d="M238.066,2343.688l-17.484-25.561c9.898-5.336,15.311-14.441,15.311-25.953v-0.236
				c0-8.64-2.692-15.644-7.953-20.797c-6.252-6.37-15.785-9.617-28.342-9.617H161.3c-1.515,0-2.756,1.241-2.756,2.765v80.96
				c0,1.529,1.241,2.766,2.756,2.766h22.446c1.525,0,2.768-1.234,2.768-2.766v-21.76h5.588l15.486,23.304
				c0.516,0.77,1.373,1.222,2.299,1.222h25.908c1.02,0,1.961-0.564,2.439-1.468C238.716,2345.64,238.652,2344.534,238.066,2343.688z
				 M207.823,2293.559c0,5.945-5.812,6.834-9.272,6.834h-12.037v-13.918h11.92c6.229,0,9.391,2.308,9.391,6.838L207.823,2293.559
				L207.823,2293.559z"/>
		</g>
		<g display="inline">
			<path fill="#EBCE29" d="M317.001,2261.572h-66.606c-0.877,0-1.584,0.709-1.584,1.582v83.261c0,0.874,0.707,1.584,1.584,1.584
				h23.073c0.875,0,1.585-0.71,1.585-1.584v-28.153h37.785c0.875,0,1.583-0.708,1.583-1.581v-19.15c0-0.875-0.708-1.582-1.583-1.582
				h-37.785v-10.989h41.948c0.874,0,1.583-0.709,1.583-1.582v-20.222C318.584,2262.281,317.875,2261.572,317.001,2261.572z"/>
			<path fill="#EBCE29" d="M418.96,2261.572h-24.382c-0.55,0-1.062,0.285-1.35,0.752l-18.516,30.045l-18.515-30.045
				c-0.288-0.467-0.799-0.752-1.35-0.752h-24.384c-0.874,0-1.583,0.709-1.583,1.582v83.261c0,0.874,0.709,1.584,1.583,1.584h22.601
				c0.874,0,1.584-0.71,1.584-1.584v-42.267l18.263,27.908c0.293,0.446,0.79,0.717,1.325,0.717h0.476
				c0.535,0,1.033-0.271,1.326-0.718l18.381-28.137v42.495c0,0.874,0.709,1.584,1.583,1.584h22.956c0.876,0,1.584-0.71,1.584-1.584
				v-83.261C420.544,2262.281,419.836,2261.572,418.96,2261.572z"/>
		</g>
	</g>
</g>
<g id="Layer_2">
	<g>
		<path fill="#FFFFFF" d="M62.09,31.049L0,62.004V0L62.09,31.049z"/>
	</g>
</g>
<g id="Layer_3">
</g>
</svg>
